<svg width="112" height="151" viewBox="0 0 112 151" fill="none" xmlns="http://www.w3.org/2000/svg">
<g id="Vector">
<path d="M10.1051 37.536C10.39 36.9953 10.7022 36.4728 11.0447 35.9685C11.0841 35.9108 11.1204 35.8501 11.1598 35.7923C11.5023 35.3002 11.8721 34.8354 12.263 34.3919C12.3115 34.3342 12.357 34.2735 12.4055 34.2188C12.7601 33.83 13.1359 33.4776 13.5208 33.1404C13.6148 33.0553 13.7057 32.9581 13.8027 32.8791C14.0906 32.6422 14.3967 32.4508 14.6967 32.2473C14.8816 32.1227 15.0604 31.9678 15.2483 31.8585L40.4008 17.3137C40.6432 17.174 40.8796 17.095 41.1191 16.9826C41.3555 16.8733 41.5949 16.7335 41.8283 16.6515L35.2272 12.8057C35.2272 12.8057 35.2272 12.8057 35.2242 12.8057C34.2998 12.262 33.0148 12.4169 31.6055 13.2462L6.43787 27.8152C4.69214 28.8146 3.0434 30.6737 1.91595 32.8791L10.0506 37.6211C10.0657 37.5907 10.0869 37.5633 10.1021 37.533L10.1051 37.536Z" fill="white"/>
<path d="M9.29589 39.3161L1.1825 34.5864C0.749097 35.8136 0.52482 37.0105 0.530881 38.098L0.621805 69.3321L8.49274 73.9221L8.40787 43.7664C8.40787 43.092 8.49577 42.3994 8.62609 41.7007C8.64427 41.6005 8.67155 41.5003 8.6958 41.397C8.83521 40.7408 9.02615 40.0877 9.26255 39.4376C9.27771 39.3951 9.28377 39.3556 9.29892 39.3131L9.29589 39.3161Z" fill="white"/>
<path d="M77.3702 72.9683V72.8255L74.6364 74.4082L48.4778 120.23L48.493 125.403C48.493 125.904 48.4414 126.423 48.3657 126.949C48.3444 127.098 48.3172 127.247 48.2899 127.396C48.2141 127.815 48.1141 128.234 47.9929 128.656C47.9565 128.781 47.9292 128.902 47.8898 129.027C47.7231 129.558 47.5231 130.087 47.2928 130.613C47.2443 130.722 47.1897 130.825 47.1382 130.935C46.9382 131.36 46.7199 131.779 46.4835 132.189C46.4381 132.268 46.4047 132.35 46.3593 132.429L77.4914 114.415L77.3732 72.9713L77.3702 72.9683Z" fill="white"/>
<path d="M46.5593 93.0964L46.4623 57.734V57.7309L46.4532 55.1671L10.3476 76.0637L10.4567 113.99L46.5593 93.0964Z" fill="white"/>
<path d="M31.954 116.909C31.6721 116.745 31.3418 116.663 30.9781 116.663C30.3931 116.663 29.7142 116.876 28.9929 117.292C26.2804 118.859 23.9982 122.812 24.0103 125.925C24.0103 127.186 24.3831 128.128 25.0529 128.577C25.6469 128.975 26.4865 128.978 27.423 128.592C27.6442 128.501 27.8776 128.386 28.111 128.249C28.3443 128.116 28.5807 127.958 28.8141 127.784C31.2599 125.959 33.0996 122.447 33.0905 119.619C33.0875 118.294 32.6814 117.328 31.951 116.909H31.954Z" fill="white"/>
<path d="M8.60487 113.987L8.4988 76.0668L0.618774 71.4767L0.724851 109.385L7.90477 113.58L8.60487 113.987Z" fill="white"/>
<path d="M40.7402 135.673C41.01 135.518 41.2706 135.318 41.5343 135.124C41.6495 135.039 41.7707 134.972 41.8859 134.878C42.2526 134.58 42.6102 134.249 42.9618 133.881C45.1773 131.545 46.6624 128.14 46.6533 125.406L46.5714 96.283V95.2319L45.6289 95.7817L10.4567 116.129L10.4749 122.608L10.4931 126.673C10.49 126.709 10.4931 126.733 10.487 126.767L10.5476 147.366C10.5476 147.764 10.5809 148.131 10.6416 148.474C10.8295 149.495 11.278 150.267 11.9266 150.665C11.9387 150.674 11.9509 150.689 11.963 150.695C12.8813 151.221 14.1694 151.066 15.5878 150.239L40.7463 135.679L40.7402 135.673ZM29.9143 129.264C29.6233 129.476 29.3293 129.671 29.0323 129.847C28.7171 130.026 28.4201 130.172 28.1261 130.294C27.4321 130.579 26.7532 130.719 26.1167 130.719C25.3499 130.719 24.6377 130.515 24.0315 130.105C22.8404 129.303 22.1797 127.818 22.1706 125.925C22.1585 122.107 24.7529 117.611 28.0746 115.691C29.8415 114.673 31.5448 114.54 32.8723 115.305C34.1968 116.068 34.9302 117.596 34.9363 119.61C34.9454 123.024 32.8329 127.083 29.9173 129.261L29.9143 129.264Z" fill="white"/>
<path d="M2.23418 145.033L8.83521 148.875C8.74732 148.411 8.69883 147.912 8.69277 147.387L8.64731 127.314C8.63215 127.165 8.63215 126.976 8.64731 126.773L8.62912 120.454L8.60791 116.119L7.11373 115.248L0.740005 111.539L0.806682 141.7C0.824867 143.319 1.33101 144.507 2.23115 145.033H2.23418Z" fill="white"/>
<path d="M20.4946 68.0593L46.4472 53.0346L46.432 47.6001L46.4017 39.8082V37.4206L46.3563 21.8005C46.3532 20.1814 45.8501 19.0027 44.9469 18.4711L44.9348 18.462C44.7287 18.3435 44.4984 18.2706 44.262 18.219C43.6983 18.1035 43.0557 18.1643 42.3556 18.4195C42.0253 18.541 41.6798 18.705 41.3282 18.9116L16.1697 33.4624C16.0848 33.511 16.006 33.5809 15.9212 33.6355C15.5605 33.8634 15.2029 34.1125 14.8543 34.4071C14.724 34.5165 14.6028 34.6471 14.4755 34.7656C14.1633 35.0572 13.8572 35.361 13.5663 35.6982C13.4662 35.8136 13.3723 35.9321 13.2753 36.0505C12.9449 36.4576 12.6328 36.889 12.3418 37.3477C12.2994 37.4115 12.257 37.4752 12.2145 37.5421C11.8721 38.101 11.5599 38.6843 11.2932 39.2918C11.1447 39.632 11.0143 39.9723 10.8961 40.3125C10.8749 40.3733 10.8507 40.431 10.8295 40.4917C10.7355 40.7742 10.6597 41.0537 10.59 41.3332C10.5446 41.5124 10.5021 41.6886 10.4658 41.8678C10.4173 42.1017 10.3748 42.3356 10.3415 42.5635C10.3082 42.8278 10.29 43.086 10.2779 43.3442C10.2718 43.4869 10.2506 43.6328 10.2536 43.7695L10.3415 73.9343L20.4916 68.0593H20.4946Z" fill="white"/>
<path d="M105.411 54.4714C105.708 54.2983 105.996 54.195 106.29 54.0674C106.481 53.9824 106.675 53.8669 106.866 53.8031L100.256 49.9634C99.3252 49.4166 98.031 49.5776 96.6005 50.4039L84.2592 57.5608L77.3672 69.6237L78.2764 70.1553L105.411 54.4714Z" fill="white"/>
<path d="M65.432 5.25995L48.2444 35.3974V39.2797L54.7091 43.0404L73.5666 10.0049C73.7333 9.71025 73.9272 9.44597 74.1121 9.16953C75.3335 7.28917 76.8429 5.75511 78.4643 4.82859C78.9462 4.54912 79.4251 4.32737 79.8979 4.16637L73.2423 0.296278C72.3391 -0.220139 71.0662 -0.0591383 69.6569 0.761053C68.0869 1.67845 66.5867 3.27631 65.438 5.26603L65.432 5.25995Z" fill="white"/>
<path d="M79.3251 113.349L105.535 98.1816C108.818 96.283 111.482 91.6686 111.469 87.8988L111.388 58.9339C111.385 57.3178 110.882 56.1392 109.972 55.6136C109.742 55.483 109.49 55.3949 109.221 55.3463C108.396 55.2066 107.396 55.4526 106.329 56.0754L79.2069 71.7653L79.3251 113.209V113.352V113.349Z" fill="white"/>
<path d="M48.2535 41.4152L48.2899 53.5631V54.2801L53.7968 44.6383L51.0237 43.0282L48.2535 41.4152Z" fill="white"/>
<path d="M48.4687 116.533L56.5518 102.368L48.4142 97.8474L48.4687 116.533Z" fill="white"/>
<path d="M100.944 15.9346L82.9771 5.9556C82.0619 5.4483 80.7798 5.61233 79.3796 6.42341C78.5855 6.88211 77.8157 7.51092 77.1005 8.2734C76.3822 9.03891 75.7215 9.94112 75.1638 10.9223L56.3093 43.9487L81.8164 58.1167L100.683 25.0691C102.159 22.487 102.735 19.6649 102.189 17.7026C101.956 16.8581 101.535 16.2627 100.947 15.9346H100.944Z" fill="white"/>
<path d="M80.9041 59.7207L55.4001 45.5496L48.305 57.9983L48.4051 93.6219V93.628L48.4111 95.7331L57.4701 100.764L75.3063 69.5204C75.3063 69.5204 75.3093 69.5022 75.3153 69.4961L80.9011 59.7207H80.9041Z" fill="white"/>
</g>
</svg>
