<svg width="60" height="151" viewBox="0 0 60 151" fill="none" xmlns="http://www.w3.org/2000/svg">
<g id="Vector">
<path d="M58.9896 6.04885C58.9098 6.02341 58.8365 5.98526 58.7535 5.97573C58.6642 5.96619 58.5717 5.97573 58.4792 5.98208C58.3867 5.98844 58.2974 5.98208 58.2049 6.00434C58.1794 6.0107 58.1538 6.02341 58.1251 6.02977C57.8061 6.11243 57.4872 6.25231 57.2256 6.40491L13.9235 31.3325C13.8374 31.3802 13.7608 31.4597 13.6779 31.5137C13.3717 31.714 13.0718 31.9366 12.7879 32.21C12.638 32.353 12.504 32.5215 12.3637 32.6837C12.1691 32.903 11.9841 33.1256 11.8086 33.3704C11.6491 33.5993 11.4992 33.8377 11.3621 34.0857C11.2536 34.2732 11.1579 34.464 11.0654 34.6579C10.9219 34.9631 10.7847 35.2715 10.6762 35.5894C10.5933 35.8278 10.5327 36.0695 10.4753 36.3079C10.3477 36.8452 10.2679 37.3602 10.2839 37.8053C10.2839 37.8275 10.2871 37.8466 10.2903 37.8657C10.303 38.1009 10.3445 38.3107 10.3955 38.5079C10.4147 38.5746 10.4306 38.6446 10.4561 38.7081C10.5136 38.8607 10.5933 38.9911 10.6794 39.1087C10.7081 39.1437 10.7241 39.1945 10.756 39.2263L24.198 53.7614L45.5795 41.4549L59.2862 10.6363C60.2623 8.43638 60.0103 6.80866 59.3596 6.22688C59.2511 6.12833 59.1204 6.09336 58.9959 6.05203L58.9896 6.04885Z" fill="white"/>
<path d="M0.46876 33.2782L14.3414 48.2646L18.9188 50.9192L9.32376 40.5552C9.2153 40.4376 9.14832 40.2818 9.05581 40.1483C8.96011 40.0084 8.85485 39.8812 8.77829 39.7286C8.71769 39.6047 8.6826 39.4616 8.63475 39.3281C8.55501 39.1151 8.48164 38.9021 8.43698 38.6668C8.41465 38.5587 8.40827 38.4443 8.39551 38.333C8.35723 38.0342 8.3381 37.7258 8.34767 37.4015C8.34767 37.3284 8.35723 37.2553 8.36361 37.179C8.37637 36.9692 8.37318 36.7689 8.40508 36.5527C8.43698 36.3397 8.4944 36.1267 8.54225 35.9169L0.0540804 30.986C-0.0894624 31.9938 0.0540804 32.8236 0.46876 33.2782Z" fill="white"/>
<path d="M3.64265 25.3717C2.39861 26.087 1.2726 27.4635 0.602733 29.0658L9.18021 34.038C9.39393 33.5707 9.63317 33.116 9.9075 32.6837C9.9075 32.6837 9.9075 32.6805 9.9075 32.6773C10.1627 32.2799 10.437 31.9048 10.7337 31.5519C10.8038 31.4692 10.8772 31.3961 10.9474 31.3166C11.1834 31.056 11.4291 30.8112 11.6842 30.5823C11.7608 30.5155 11.8342 30.4456 11.9139 30.382C12.2456 30.1086 12.5838 29.8542 12.941 29.6508L56.2495 4.72633C56.2495 4.72633 56.2814 4.71361 56.2973 4.70725C56.3803 4.65956 56.4632 4.61506 56.543 4.57373L48.9161 0.151544C48.9161 0.151544 48.9097 0.148365 48.9065 0.145186C48.4599 -0.121862 47.7613 -0.0201295 46.9447 0.447204L3.64265 25.3717Z" fill="white"/>
<path d="M28.0673 149.902C28.2746 150.096 28.4787 150.293 28.718 150.436C30.8839 151.746 33.6654 150.458 34.8808 149.759C38.1567 147.873 41.1616 144.224 42.9192 139.995L58.5526 102.313C59.9529 98.9337 60.3612 95.5925 59.6722 93.1477L45.7358 43.5977L24.8774 55.6021L11.0399 124.198C11.0399 124.198 11.0399 124.202 11.0399 124.205C10.8549 125.085 10.7624 125.937 10.7464 126.758C10.7464 126.847 10.7592 126.926 10.7592 127.015C10.7624 127.756 10.8198 128.474 10.9633 129.155C10.9825 129.247 11.0112 129.326 11.0335 129.415C11.1452 129.873 11.2727 130.305 11.4354 130.677C11.6204 131.081 11.8373 131.453 12.0989 131.768C12.1276 131.806 12.15 131.86 12.1787 131.898L27.777 149.644C27.8695 149.749 27.9748 149.806 28.0704 149.895L28.0673 149.902Z" fill="white"/>
<path d="M17.4961 143.702C17.7641 144.004 18.1086 144.287 18.5105 144.532L22.9444 147.101L10.705 133.17C10.6731 133.135 10.6603 133.084 10.6284 133.049C10.2903 132.642 9.99362 132.175 9.74481 131.644C9.5598 131.266 9.43221 130.843 9.30143 130.417C9.26315 130.286 9.20254 130.182 9.16745 130.048L2.83243 126.376L1.72237 125.731C1.77978 125.804 1.8372 125.874 1.89462 125.941L17.4961 143.699V143.702Z" fill="white"/>
<path d="M5.78303 125.848L8.80381 127.6C8.79743 127.457 8.81657 127.301 8.81338 127.158C8.81338 126.843 8.81338 126.529 8.83571 126.204C8.87399 125.527 8.95373 124.837 9.08771 124.128C9.10685 124.027 9.10366 123.934 9.12599 123.83L22.9189 55.4781L14.4179 50.5504L0.755845 118.266C0.420912 119.907 0.373064 121.448 0.612302 122.847L5.78303 125.845V125.848Z" fill="white"/>
</g>
</svg>
