<svg width="132" height="152" viewBox="0 0 132 152" fill="none" xmlns="http://www.w3.org/2000/svg">
<g id="Vector">
<path d="M100.932 60.2241L63.9291 97.863C64.9705 99.4614 66.296 100.952 67.7824 102.22C68.4073 102.754 69.0511 103.246 69.7233 103.688L106.771 66.0079C104.514 64.4856 102.488 62.474 100.939 60.2241H100.932Z" fill="white"/>
<path d="M63.7492 27.7652C64.5192 28.2164 65.6617 28.0607 66.8798 27.3521L84.4141 17.1574L62.49 5.54541L62.5436 24.8733C62.5436 26.2906 62.9728 27.3203 63.7492 27.7652Z" fill="white"/>
<path d="M9.66305 36.9556C9.96286 36.3963 10.2911 35.8593 10.6319 35.3254C10.8497 34.9822 11.058 34.639 11.2883 34.3148C11.6229 33.8413 11.9826 33.4028 12.3424 32.961C12.6044 32.6401 12.8537 32.3064 13.1251 32.0077C13.5574 31.5342 14.0182 31.1147 14.479 30.692C14.6999 30.4918 14.905 30.263 15.1323 30.0755C15.8392 29.4876 16.5714 28.9569 17.3225 28.5183L59.5897 3.93104L52.8676 0L9.64095 25.1466C6.87953 26.7483 4.23171 29.7482 2.43599 33.2756L9.42004 37.3592C9.49263 37.2162 9.5873 37.0923 9.65989 36.9524L9.66305 36.9556Z" fill="white"/>
<path d="M7.18249 43.9279C7.30242 43.2224 7.46653 42.5074 7.67482 41.7797C7.71584 41.6335 7.75056 41.4873 7.79474 41.3379C8.02197 40.6038 8.28075 39.8666 8.59635 39.1229L1.62492 35.0457C0.690772 37.3338 0.201605 39.5806 0.211072 41.5953L0.479325 139.941C0.501417 142.643 1.36614 144.629 2.91885 145.528L7.66535 148.312C7.60854 148.128 7.58645 147.921 7.53911 147.727C7.49177 147.53 7.44759 147.333 7.40972 147.127C7.30242 146.523 7.23615 145.89 7.22668 145.217C7.22668 145.144 7.20774 145.083 7.20774 145.007L6.92055 46.6418C6.92055 45.8569 7.00892 45.037 7.13831 44.2044C7.15094 44.109 7.16987 44.0169 7.18565 43.9216L7.18249 43.9279Z" fill="white"/>
<path d="M17.6538 149.888L76.2308 115.824C80.8164 113.152 84.6382 107.136 85.4903 101.629L80.9174 106.3C80.545 106.675 80.1126 106.964 79.655 107.219C79.5319 107.285 79.4088 107.349 79.2794 107.406C78.9765 107.546 78.6577 107.657 78.3232 107.746C78.3011 107.753 78.2885 107.775 78.2664 107.781L58.018 113.282C57.7624 113.352 57.5036 113.381 57.248 113.381C56.4558 113.381 55.6953 113.066 55.1209 112.478C54.3603 111.703 54.0731 110.616 54.3572 109.57L59.3183 91.4182L43.3209 100.787C43.1694 100.876 43.0022 100.92 42.8381 100.92C42.5067 100.92 42.1848 100.748 42.0049 100.437C41.7366 99.9731 41.8944 99.382 42.352 99.1119L60.164 88.6821C60.4449 87.9511 60.8047 87.2711 61.3412 86.7213L85.5755 61.9846L85.4619 18.7908L67.8455 29.0332C66.782 29.6497 65.7342 29.9643 64.7717 29.9643C64.0584 29.9643 63.3862 29.7927 62.7898 29.4463C61.3948 28.6391 60.6248 27.0152 60.6185 24.8765L60.5648 5.62803L18.2755 30.209C18.244 30.228 18.2093 30.2535 18.1777 30.2725C17.6696 30.5744 17.1773 30.9335 16.6944 31.3117C16.524 31.4484 16.3504 31.5755 16.18 31.7216C15.7634 32.0776 15.3595 32.4653 14.965 32.8689C14.6904 33.1517 14.419 33.4472 14.1571 33.7555C14.0435 33.8858 13.9393 34.0224 13.8289 34.1559C13.2829 34.8233 12.759 35.5288 12.2761 36.2787C12.2509 36.3169 12.2257 36.355 12.2036 36.3931C11.6513 37.2639 11.1463 38.1791 10.7077 39.1293C10.4552 39.6727 10.2437 40.2161 10.0418 40.7564C9.97233 40.9439 9.89974 41.1314 9.83662 41.3189C9.69776 41.7193 9.58415 42.1165 9.47685 42.5106C9.34746 42.9904 9.23384 43.4703 9.14863 43.947C9.11707 44.1186 9.07605 44.2934 9.0508 44.4618C8.94034 45.1991 8.87407 45.93 8.87722 46.6386L9.14863 144.978C9.14863 146.926 9.61255 148.49 10.4489 149.567C10.4804 149.608 10.5025 149.669 10.5341 149.707C10.6572 149.856 10.8244 149.949 10.9633 150.076C11.1653 150.257 11.3515 150.463 11.5818 150.597C13.1535 151.506 15.3121 151.251 17.6633 149.885L17.6538 149.888ZM18.5122 66.3066L72.0145 35.1951C72.4753 34.9313 73.0623 35.087 73.3305 35.551C73.5956 36.015 73.4378 36.6092 72.9771 36.8762L19.478 67.9877C19.3265 68.0767 19.1592 68.118 18.9951 68.118C18.6637 68.118 18.3387 67.9432 18.1619 67.6318C17.8968 67.1678 18.0546 66.5735 18.5154 66.3066H18.5122ZM72.9771 52.4319L65.0778 57.024C64.9263 57.113 64.7591 57.1543 64.5949 57.1543C64.2636 57.1543 63.9385 56.9795 63.7618 56.668C63.4967 56.2041 63.6545 55.6098 64.1153 55.3429L72.0145 50.7508C72.4753 50.4871 73.0623 50.6428 73.3305 51.1068C73.5956 51.5707 73.4378 52.165 72.9771 52.4319ZM18.5122 81.8623L56.5726 59.7315C57.0334 59.4678 57.6204 59.6235 57.8886 60.0874C58.1537 60.5514 57.9959 61.1457 57.5352 61.4126L19.4748 83.5434C19.3233 83.6324 19.156 83.6737 18.9919 83.6737C18.6606 83.6737 18.3355 83.4989 18.1588 83.1875C17.8937 82.7235 18.0515 82.1293 18.5122 81.8623ZM18.5122 97.4212L72.0145 66.3098C72.4753 66.046 73.0623 66.2017 73.3305 66.6657C73.5956 67.1296 73.4378 67.7239 72.9771 67.9908L19.478 99.0992C19.3265 99.1881 19.1592 99.2295 18.9951 99.2295C18.6637 99.2295 18.3387 99.0547 18.1619 98.7432C17.8968 98.2793 18.0546 97.685 18.5154 97.4181L18.5122 97.4212ZM18.5122 112.977L33.0894 104.502C33.5502 104.238 34.1372 104.394 34.4054 104.857C34.6705 105.321 34.5127 105.916 34.052 106.183L19.4748 114.658C19.3233 114.747 19.156 114.788 18.9919 114.788C18.6606 114.788 18.3355 114.614 18.1588 114.302C17.8937 113.838 18.0515 113.244 18.5122 112.977ZM18.5122 128.536L47.6666 111.582C48.1242 111.318 48.7144 111.474 48.9826 111.938C49.2477 112.402 49.0899 112.996 48.6292 113.263L19.4748 130.217C19.3233 130.306 19.156 130.347 18.9919 130.347C18.6606 130.347 18.3355 130.173 18.1588 129.861C17.8937 129.397 18.0515 128.803 18.5122 128.536Z" fill="white"/>
<path d="M131.289 47.2869C131.289 44.0995 130.055 41.1059 127.817 38.856C123.175 34.1972 115.642 34.1972 111.006 38.856L105.982 43.9057C105.982 43.9057 105.975 43.9152 105.972 43.9184L105.963 43.9279C105.754 44.144 105.606 44.4078 105.455 44.6684C105.401 44.7637 105.319 44.8368 105.272 44.9385C105.148 45.2054 105.085 45.5168 105.013 45.8251C104.984 45.9522 104.928 46.0603 104.905 46.1937C104.846 46.6037 104.842 47.0518 104.871 47.5189C104.871 47.5729 104.861 47.6174 104.868 47.6715C104.89 47.9575 104.972 48.2753 105.025 48.5772C105.073 48.8346 105.089 49.0793 105.161 49.3494C106.439 54.1957 111.091 59.1436 115.923 61.0662C116.39 61.2506 116.854 61.4444 117.321 61.5715C117.479 61.616 117.621 61.6192 117.775 61.6541C118.195 61.7495 118.618 61.8448 119.006 61.8766C119.224 61.8957 119.413 61.8639 119.622 61.8639C119.921 61.8639 120.234 61.883 120.508 61.8416C120.644 61.8226 120.755 61.7622 120.884 61.7336C121.196 61.6605 121.515 61.5938 121.786 61.4667C121.85 61.4381 121.894 61.384 121.957 61.3522C122.266 61.1838 122.563 60.9995 122.806 60.7548C122.812 60.7485 122.822 60.7453 122.828 60.7389L127.814 55.7306C130.058 53.4743 131.295 50.4743 131.295 47.2806L131.289 47.2869Z" fill="white"/>
<path d="M119.748 63.8469C119.748 63.8469 119.719 63.8469 119.704 63.8469C119.681 63.8469 119.659 63.8532 119.637 63.8532C118.773 63.8532 117.845 63.7229 116.873 63.4624C116.854 63.4592 116.838 63.456 116.822 63.4528C111.019 61.8893 105.303 56.2422 103.504 50.4299C103.444 50.2392 103.353 50.0485 103.302 49.8578C103.302 49.8483 103.302 49.8419 103.299 49.8324C103.17 49.3398 103.075 48.86 103.012 48.396C102.996 48.288 103.002 48.1863 102.99 48.0814C102.984 48.0147 102.984 47.9511 102.977 47.8844C102.965 47.7445 102.955 47.6079 102.949 47.4712C102.943 47.3314 102.92 47.1821 102.92 47.0454L100.901 49.1079C99.8781 50.2773 99.613 52.1141 100.2 54.3482C100.544 55.6511 101.137 56.9604 101.904 58.222C101.929 58.2665 101.964 58.3047 101.98 58.3491C104.356 62.1785 108.396 65.5026 112.357 66.5703C114.752 67.2154 116.705 66.9326 117.854 65.7727L119.751 63.8532L119.748 63.8469Z" fill="white"/>
<path d="M85.9794 98.3651L114.903 68.8266C114.834 68.8266 114.771 68.8425 114.701 68.8425C113.811 68.8425 112.862 68.7091 111.858 68.4389C110.716 68.1307 109.583 67.6222 108.475 67.028L71.4528 104.683C72.3206 105.121 73.198 105.499 74.0753 105.735C74.7475 105.916 75.3756 106.014 75.9626 106.046C76.0762 106.052 76.174 106.036 76.2813 106.04C76.7831 106.04 77.2628 106.008 77.6794 105.893C78.0297 105.808 78.3674 105.709 78.664 105.553C78.9891 105.382 79.2921 105.185 79.5445 104.927L85.9479 98.381C85.9479 98.381 85.97 98.3714 85.9794 98.3651Z" fill="white"/>
<path d="M67.7035 104.638C67.4574 104.454 67.2049 104.289 66.965 104.095C66.356 103.602 65.7658 103.078 65.2072 102.519C65.1756 102.487 65.1441 102.455 65.1125 102.423C64.5539 101.858 64.0269 101.263 63.5346 100.65C63.361 100.434 63.2127 100.205 63.0486 99.9826C62.733 99.5536 62.4205 99.1278 62.1397 98.6829C61.9692 98.4127 61.8241 98.1363 61.6694 97.8598C61.4359 97.4467 61.2118 97.0335 61.013 96.6141C60.8741 96.3185 60.7605 96.023 60.6406 95.7274C60.5428 95.4859 60.4197 95.2476 60.3376 95.0061L56.216 110.085C56.074 110.619 56.3612 110.981 56.4906 111.115C56.7651 111.398 57.1596 111.509 57.5289 111.407L72.6015 107.311C72.4027 107.241 72.2102 107.139 72.0114 107.063C71.6516 106.92 71.2918 106.78 70.9352 106.609C70.5691 106.434 70.2125 106.237 69.8559 106.033C69.5371 105.855 69.2184 105.687 68.9059 105.487C68.4957 105.226 68.1012 104.934 67.7067 104.638H67.7035Z" fill="white"/>
<path d="M98.0035 52.0569L62.7203 88.091C62.2564 88.5581 61.9724 89.181 61.7957 89.8801C61.6915 90.2837 61.641 90.7286 61.6347 91.199C61.6347 91.3356 61.6189 91.4627 61.6252 91.6025C61.6442 92.0983 61.7357 92.629 61.8525 93.1724C61.8809 93.2932 61.8809 93.398 61.9124 93.522C62.1396 94.3895 62.5089 95.2539 62.9349 96.112L99.8813 58.5303C99.2154 57.3227 98.6599 56.0833 98.3317 54.8344C98.0698 53.8461 97.994 52.9277 98.0035 52.0506V52.0569Z" fill="white"/>
</g>
</svg>
