<svg width="70" height="68" viewBox="0 0 70 68" fill="none" xmlns="http://www.w3.org/2000/svg">
<path fill-rule="evenodd" clip-rule="evenodd" d="M58.4006 0H11.6357C5.36104 0 0.225586 5.10501 0.225586 11.3424V56.6576C0.225586 62.895 5.36104 68 11.6357 68H58.3969C64.6715 68 69.807 62.895 69.807 56.6576V11.3424C69.807 5.10501 64.6715 0 58.3969 0" fill="#0002E6"/>
<path d="M15.0532 2.95668L18.4634 5.00305V21.1701C18.4634 23.1983 19.0312 24.815 20.1667 26.0202C21.3022 27.2255 22.7747 27.8299 24.5842 27.8299C26.3937 27.8299 27.9102 27.2218 29.0567 26.002C30.2068 24.7822 30.7819 23.1582 30.7819 21.1301C30.7819 19.1019 30.1958 17.6308 29.02 16.4147C27.8442 15.1949 26.3278 14.5868 24.467 14.5868C24.0641 14.5868 23.8077 14.5067 23.6245 14.3974L27.2984 17.9913L25.5549 19.7318L18.6978 12.9883L25.4084 6.23379L27.2032 7.9925L23.7491 11.4444C24.1007 11.4116 24.4523 11.3934 24.8076 11.3934C27.4413 11.3934 29.6757 12.3438 31.5072 14.2445C33.3387 16.1452 34.2581 18.4538 34.2581 21.1738C34.2581 24.0758 33.3533 26.4499 31.5475 28.296C29.7416 30.1458 27.4413 31.067 24.6538 31.067C22.8187 31.067 21.1337 30.6046 19.5989 29.6797C18.0642 28.7548 16.8957 27.484 16.0935 25.8673C15.7309 25.201 15.4671 24.4472 15.2986 23.6134C15.1301 22.7795 15.0459 21.4651 15.0459 19.6663V2.95668H15.0532Z" fill="white"/>
<path d="M53.7779 11.6847V22.0804C53.7779 24.8769 53.0307 27.0726 51.5325 28.6638C50.0344 30.255 48.071 31.0524 45.6462 31.0524C43.2213 31.0524 41.2286 30.2696 39.7598 28.7038C38.2873 27.1381 37.551 24.9315 37.551 22.0804V11.6847H40.921V22.6958C40.921 24.2106 41.3678 25.4376 42.2579 26.3734C43.148 27.3092 44.2909 27.779 45.6865 27.779C47.082 27.779 48.1846 27.3092 49.0747 26.3734C49.9648 25.4376 50.4117 24.2106 50.4117 22.6958V11.6847H53.7816H53.7779Z" fill="white"/>
<path d="M45.6388 61.2637C49.5399 61.2637 51.4886 59.2246 51.4886 55.1428V52.9107C49.9135 54.4 48.1443 55.1428 46.181 55.1428C43.8037 55.1428 41.9576 54.3745 40.6426 52.827C39.3239 51.2867 38.6682 49.0583 38.6682 46.1526V36.7364H42.0784V46.7352C42.0784 48.3337 42.4777 49.579 43.2799 50.4784C44.0821 51.3814 45.2029 51.8329 46.6498 51.8329C48.0967 51.8329 49.1992 51.305 50.115 50.249C51.0307 49.1967 51.4886 47.7766 51.4886 46.007V36.74H54.8988V54.7496C54.8988 57.9138 54.0929 60.3316 52.4776 62.0138C50.8622 63.7033 48.5582 64.5408 45.5619 64.5408C43.833 64.5408 41.8184 64.1803 39.518 63.463L40.2909 60.1896C42.4081 60.9069 44.192 61.2674 45.6352 61.2674M34.2471 28.1904V44.9C34.2471 46.4658 34.1958 47.6601 34.0932 48.4794C33.9907 49.3023 33.694 50.1725 33.2031 51.0974C32.3753 52.7141 31.2068 53.9849 29.6977 54.9098C28.1885 55.8346 26.5036 56.2971 24.6428 56.2971C21.8809 56.2971 19.5879 55.3649 17.7675 53.5043C15.947 51.6436 15.0349 49.2768 15.0349 46.4002C15.0349 43.5236 15.947 41.3353 17.7675 39.4491C19.5879 37.5629 21.8297 36.6199 24.489 36.6199C25.2618 36.6199 25.9615 36.6781 26.5805 36.7946C27.1995 36.9112 29.1336 37.4792 29.6757 37.6867V41.5501C28.0787 40.3958 26.467 39.8169 24.8406 39.8169C23.0055 39.8169 21.4963 40.4213 20.3095 41.6266C19.1227 42.8318 18.5293 44.4121 18.5293 46.3638C18.5293 48.3155 19.1044 50.016 20.2546 51.2358C21.4048 52.4556 22.8956 53.0637 24.7271 53.0637C26.5585 53.0637 27.9761 52.4556 29.1226 51.2358C30.2728 50.016 30.8515 48.4065 30.8478 46.4039L30.8149 31.0597L34.2581 28.1941L34.2471 28.1904Z" fill="white"/>
</svg>
